<?xml version="1.0" encoding="UTF-8"?>
<svg xmlns="http://www.w3.org/2000/svg" width="336" height="190" viewBox="0 0 336 190" fill="none" style="background: transparent;">

<g clip-path="url(#clip0_7328_391)">
<rect x="144" y="71" width="48" height="48" rx="24" fill="white"/>
<path fill-rule="evenodd" clip-rule="evenodd" d="M154.442 80.3881L161.75 82.0454C161.84 82.0622 161.902 82.1409 161.902 82.2307V107.915C161.902 108.005 161.835 108.089 161.745 108.106L154.436 109.612C154.313 109.64 154.2 109.544 154.2 109.421V80.5791C154.2 80.4555 154.318 80.36 154.442 80.3881ZM181.559 80.3881L174.25 82.0454C174.16 82.0622 174.098 82.1409 174.098 82.2307V107.915C174.098 108.005 174.166 108.089 174.256 108.106L181.564 109.612C181.688 109.64 181.8 109.544 181.8 109.421V80.5791C181.8 80.4555 181.682 80.36 181.559 80.3881ZM171.851 91.2249V98.5898V98.7583H171.683H164.318H164.149V98.5898V91.2249V91.0563H164.318H171.683H171.851V91.2249Z" fill="url(#paint0_linear_7328_391)"/>
<path fill-rule="evenodd" clip-rule="evenodd" d="M161.119 82.7051L154.983 81.3138V108.7L161.119 107.436V82.7051ZM174.881 82.7051V107.436L181.017 108.7V81.3138L174.881 82.7051ZM161.75 82.0454C161.84 82.0622 161.902 82.1409 161.902 82.2307V107.915C161.902 108.005 161.835 108.089 161.745 108.106L154.436 109.612C154.313 109.64 154.2 109.544 154.2 109.421V80.5791C154.2 80.4555 154.318 80.36 154.442 80.3881L161.75 82.0454ZM181.564 109.612L174.256 108.106C174.166 108.089 174.098 108.005 174.098 107.915V82.2307C174.098 82.1409 174.16 82.0622 174.25 82.0454L181.559 80.3881C181.682 80.36 181.8 80.4555 181.8 80.5791V109.421C181.8 109.544 181.688 109.64 181.564 109.612ZM171.068 97.9753V91.8394H164.932V97.9753H171.068ZM164.149 98.7583V91.0563H171.851V98.7583H164.149Z" fill="black"/>
</g>
<defs>
<linearGradient id="paint0_linear_7328_391" x1="177.136" y1="80.3832" x2="176.875" y2="109.617" gradientUnits="userSpaceOnUse">
<stop offset="0.055"/>
<stop offset="0.4999" stop-color="#808080"/>
<stop offset="0.5"/>
<stop offset="0.97" stop-color="#666666"/>
</linearGradient>
<clipPath id="clip0_7328_391">
<rect width="48" height="48" fill="white" transform="translate(144 71)"/>
</clipPath>
</defs>
</svg>