<?xml version="1.0" encoding="UTF-8"?>
<svg xmlns="http://www.w3.org/2000/svg" width="335" height="190" viewBox="0 0 335 190" fill="none" style="background: transparent;">

<g clip-path="url(#clip0_7328_376)">
<rect x="66" y="71" width="48" height="48" rx="24" fill="white"/>
<path fill-rule="evenodd" clip-rule="evenodd" d="M76.4408 80.3881L83.7495 82.0454C83.8394 82.0622 83.9012 82.1409 83.9012 82.2307V107.915C83.9012 108.005 83.8338 108.089 83.7439 108.106L76.4352 109.612C76.3116 109.64 76.1992 109.544 76.1992 109.421V80.5791C76.1992 80.4555 76.3172 80.36 76.4408 80.3881ZM103.558 80.3881L96.249 82.0454C96.1591 82.0622 96.0973 82.1409 96.0973 82.2307V107.915C96.0973 108.005 96.1647 108.089 96.2546 108.106L103.563 109.612C103.687 109.64 103.799 109.544 103.799 109.421V80.5791C103.799 80.4555 103.681 80.36 103.558 80.3881ZM93.8503 91.2249V98.5898V98.7583H93.6818H86.3169H86.1483V98.5898V91.2249V91.0563H86.3169H93.6818H93.8503V91.2249Z" fill="url(#paint0_linear_7328_376)"/>
<path fill-rule="evenodd" clip-rule="evenodd" d="M83.1182 82.7051L76.9823 81.3138V108.7L83.1182 107.436V82.7051ZM96.8804 82.7051V107.436L103.016 108.7V81.3138L96.8804 82.7051ZM83.7495 82.0454C83.8394 82.0622 83.9012 82.1409 83.9012 82.2307V107.915C83.9012 108.005 83.8338 108.089 83.7439 108.106L76.4352 109.612C76.3116 109.64 76.1992 109.544 76.1992 109.421V80.5791C76.1992 80.4555 76.3172 80.36 76.4408 80.3881L83.7495 82.0454ZM103.563 109.612L96.2546 108.106C96.1647 108.089 96.0973 108.005 96.0973 107.915V82.2307C96.0973 82.1409 96.1591 82.0622 96.249 82.0454L103.558 80.3881C103.681 80.36 103.799 80.4555 103.799 80.5791V109.421C103.799 109.544 103.687 109.64 103.563 109.612ZM93.0673 97.9753V91.8394H86.9314V97.9753H93.0673ZM86.1483 98.7583V91.0563H93.8503V98.7583H86.1483Z" fill="black"/>
</g>
<path d="M123.86 103C123.7 103 123.6 102.9 123.6 102.74V88.58C123.6 88.42 123.7 88.32 123.86 88.32H126.04C126.2 88.32 126.3 88.42 126.3 88.58V94.2H133.1V88.58C133.1 88.42 133.2 88.32 133.36 88.32H135.54C135.7 88.32 135.8 88.42 135.8 88.58V102.74C135.8 102.9 135.7 103 135.54 103H133.36C133.2 103 133.1 102.9 133.1 102.74V96.74H126.3V102.74C126.3 102.9 126.2 103 126.04 103H123.86ZM142.991 103.2C140.031 103.2 138.151 101 138.151 97.82C138.151 94.64 140.031 92.44 142.991 92.44C144.431 92.44 145.631 93.04 146.371 94.06L146.431 92.9C146.431 92.72 146.551 92.64 146.711 92.64H148.591C148.751 92.64 148.851 92.74 148.851 92.9V102.74C148.851 102.9 148.751 103 148.591 103H146.711C146.551 103 146.431 102.92 146.431 102.74L146.371 101.58C145.631 102.6 144.431 103.2 142.991 103.2ZM143.631 100.84C145.291 100.84 146.431 99.6 146.431 97.82C146.431 96.04 145.291 94.8 143.631 94.8C141.971 94.8 140.831 96.04 140.831 97.82C140.831 99.6 141.971 100.84 143.631 100.84ZM155.283 103.2C153.023 103.2 151.443 102.24 150.783 100.44C150.723 100.28 150.803 100.16 150.963 100.12L152.783 99.62C152.923 99.58 153.043 99.64 153.103 99.78C153.583 100.62 154.303 100.9 155.183 100.9C156.063 100.9 156.703 100.72 156.703 100.14C156.703 99.7 156.263 99.46 155.163 99.14L154.663 99C152.183 98.3 151.223 97.08 151.223 95.48C151.223 93.72 152.823 92.44 155.163 92.44C157.163 92.44 158.583 93.28 159.223 95.04C159.283 95.2 159.223 95.32 159.063 95.36L157.243 95.94C157.083 96 156.983 95.94 156.903 95.8C156.543 95.16 156.003 94.74 155.123 94.74C154.443 94.74 153.903 94.94 153.903 95.48C153.903 95.96 154.363 96.24 155.503 96.52L155.983 96.64C158.523 97.28 159.383 98.36 159.383 100.08C159.383 101.98 157.663 103.2 155.283 103.2ZM161.608 103C161.448 103 161.348 102.9 161.348 102.74V88.26C161.348 88.1 161.448 88 161.608 88H163.688C163.848 88 163.948 88.1 163.948 88.26V93.92C164.728 92.92 165.948 92.44 167.208 92.44C169.608 92.44 170.988 93.88 170.988 96.26V102.74C170.988 102.9 170.888 103 170.728 103H168.648C168.488 103 168.388 102.9 168.388 102.74V97.32C168.388 95.6 167.768 94.8 166.408 94.8C165.148 94.8 163.948 95.74 163.948 97.72V102.74C163.948 102.9 163.848 103 163.688 103H161.608ZM174.133 103C173.973 103 173.873 102.9 173.873 102.74V88.58C173.873 88.42 173.973 88.32 174.133 88.32H176.313C176.473 88.32 176.573 88.42 176.573 88.58V95.3L182.453 88.46C182.533 88.36 182.653 88.32 182.773 88.32H185.333C185.553 88.32 185.613 88.48 185.473 88.64L180.833 93.88L186.153 102.68C186.253 102.86 186.173 103 185.973 103H183.393C183.253 103 183.153 102.94 183.093 102.82L179.053 95.88L176.573 98.68V102.74C176.573 102.9 176.473 103 176.313 103H174.133ZM192.16 103.2C188.9 103.2 186.92 100.96 186.92 97.82C186.92 94.68 188.9 92.44 192.16 92.44C195.34 92.44 197.16 94.8 197.06 98.36C197.04 98.54 196.94 98.62 196.78 98.62H189.68C189.92 100.04 190.8 100.9 192.18 100.9C193.24 100.9 193.98 100.5 194.46 99.72C194.54 99.58 194.66 99.56 194.8 99.6L196.58 100.22C196.74 100.28 196.8 100.4 196.72 100.56C195.8 102.38 194.08 103.2 192.16 103.2ZM192.14 94.74C190.92 94.74 190.04 95.44 189.72 96.68H194.28C194.04 95.46 193.26 94.74 192.14 94.74ZM200.017 107.36C199.837 107.36 199.757 107.24 199.817 107.06L201.717 102.34L197.557 92.94C197.477 92.76 197.557 92.64 197.757 92.64H200.237C200.377 92.64 200.477 92.7 200.537 92.84L203.057 99.2L205.517 92.84C205.577 92.7 205.677 92.64 205.817 92.64H208.097C208.277 92.64 208.377 92.76 208.297 92.94L202.497 107.16C202.437 107.3 202.337 107.36 202.197 107.36H200.017ZM221.253 103.28C217.073 103.28 214.293 100.32 214.293 95.66C214.293 90.98 217.153 88.04 221.273 88.04C224.273 88.04 226.373 89.46 227.373 91.9C227.413 92.02 227.373 92.14 227.233 92.18L226.013 92.54C225.893 92.58 225.793 92.52 225.753 92.42C224.913 90.64 223.473 89.68 221.293 89.68C217.893 89.68 216.033 92.16 216.033 95.66C216.033 99.18 217.913 101.64 221.293 101.64C223.633 101.64 225.293 100.46 226.053 98.3C226.093 98.18 226.193 98.12 226.313 98.16L227.533 98.52C227.653 98.56 227.693 98.64 227.673 98.74C226.833 101.42 224.653 103.28 221.253 103.28ZM230.499 103C230.359 103 230.279 102.92 230.279 102.78V88.2C230.279 88.08 230.359 88 230.499 88H231.679C231.799 88 231.879 88.08 231.879 88.2V94.6C232.659 93.34 234.099 92.7 235.439 92.7C237.719 92.7 239.059 94.1 239.059 96.44V102.78C239.059 102.92 238.979 103 238.859 103H237.679C237.539 103 237.459 102.92 237.459 102.78V97.1C237.459 95.16 236.699 94.18 235.019 94.18C233.579 94.18 231.879 95.26 231.879 97.66V102.78C231.879 102.92 231.799 103 231.679 103H230.499ZM246.215 103.2C243.275 103.2 241.395 101.02 241.395 97.94C241.395 94.88 243.275 92.7 246.215 92.7C247.815 92.7 249.215 93.48 249.935 94.72L249.995 93.1C249.995 92.96 250.095 92.9 250.215 92.9H251.255C251.375 92.9 251.455 92.98 251.455 93.1V102.78C251.455 102.92 251.375 103 251.255 103H250.215C250.095 103 249.995 102.94 249.995 102.78L249.935 101.16C249.215 102.42 247.815 103.2 246.215 103.2ZM246.515 101.72C248.575 101.72 249.995 100.2 249.995 97.94C249.995 95.7 248.575 94.18 246.515 94.18C244.455 94.18 243.035 95.7 243.035 97.94C243.035 100.2 244.455 101.72 246.515 101.72ZM255.376 90.62C254.776 90.62 254.316 90.2 254.316 89.6C254.316 89 254.776 88.58 255.376 88.58C255.976 88.58 256.436 89 256.436 89.6C256.436 90.2 255.976 90.62 255.376 90.62ZM254.796 103C254.656 103 254.576 102.92 254.576 102.78V93.1C254.576 92.98 254.656 92.9 254.796 92.9H255.976C256.096 92.9 256.176 92.98 256.176 93.1V102.78C256.176 102.92 256.096 103 255.976 103H254.796ZM259.522 103C259.382 103 259.302 102.92 259.302 102.78V93.1C259.302 92.98 259.382 92.9 259.522 92.9H260.542C260.682 92.9 260.762 92.96 260.762 93.1L260.842 94.72C261.602 93.38 263.082 92.7 264.462 92.7C266.742 92.7 268.082 94.1 268.082 96.44V102.78C268.082 102.92 268.002 103 267.882 103H266.702C266.562 103 266.482 102.92 266.482 102.78V97.1C266.482 95.16 265.722 94.18 264.042 94.18C262.602 94.18 260.902 95.26 260.902 97.66V102.78C260.902 102.92 260.822 103 260.702 103H259.522Z" fill="white"/>
<defs>
<linearGradient id="paint0_linear_7328_376" x1="99.1347" y1="80.3832" x2="98.8737" y2="109.617" gradientUnits="userSpaceOnUse">
<stop offset="0.055"/>
<stop offset="0.4999" stop-color="#808080"/>
<stop offset="0.5"/>
<stop offset="0.97" stop-color="#666666"/>
</linearGradient>
<clipPath id="clip0_7328_376">
<rect width="48" height="48" fill="white" transform="translate(66 71)"/>
</clipPath>
</defs>
</svg>